<?xml version="1.0" encoding="UTF-8" standalone="no"?><!DOCTYPE svg PUBLIC "-//W3C//DTD SVG 1.1//EN" "http://www.w3.org/Graphics/SVG/1.1/DTD/svg11.dtd"><svg width="100%" height="100%" viewBox="0 0 691 154" version="1.1" xmlns="http://www.w3.org/2000/svg" xmlns:xlink="http://www.w3.org/1999/xlink" xml:space="preserve" xmlns:serif="http://www.serif.com/" style="fill-rule:evenodd;clip-rule:evenodd;stroke-linejoin:round;stroke-miterlimit:1.41421;"><g><g><path d="M0,93.878c0,0 14.943,-62.718 80.325,-75.374c0,0 -59.371,1.613 -80.325,75.374Z" style="fill:#003e6b;fill-rule:nonzero;"/><path d="M2.654,118.906c0,0 21.657,-13.564 42.882,7.838c0,0 -18.788,-25.381 -42.882,-7.838Z" style="fill:#0077be;fill-rule:nonzero;"/><path d="M56.023,45.959c0,0 -0.256,38.269 41.419,39.396c0,0 -43.384,2.664 -41.419,-39.396Z" style="fill:#2e3092;fill-rule:nonzero;"/><path d="M49.747,42.261c0,0 29.524,-19.385 45.686,8.651c0,0 -6.998,-32.852 -45.686,-8.651Z" style="fill:#007bb6;fill-rule:nonzero;"/><path d="M26.182,65.674c0,0 8.144,43.202 73.826,41.638c0,0 -65.184,8.929 -73.826,-41.638Z" style="fill:#2e3092;fill-rule:nonzero;"/><path d="M15.594,39.473c0,0 32.043,-7.907 29.402,35.926c0,0 4.709,-45.672 -29.402,-35.926Z" style="fill:#58b947;fill-rule:nonzero;"/><path d="M87.717,17.294c0,0 99.708,9.084 87.864,93.116c0,0 30.068,-79.234 -87.864,-93.116Z" style="fill:#008bb2;fill-rule:nonzero;"/><path d="M51.85,121.803c0,0 95.808,32.42 79.524,-8.271c0,0 30.318,44.307 -79.524,8.271Z" style="fill:#4bb748;fill-rule:nonzero;"/><path d="M76.699,7.797c0,0 55.934,31.161 15.688,87.217c0,0 48.831,-50.18 -15.688,-87.217Z" style="fill:#215eac;fill-rule:nonzero;"/><path d="M20.401,121.803c0,0 -22.758,-54.824 30.32,-37.876c0,0 -54.266,-25.989 -30.32,37.876Z" style="fill:#ee3123;fill-rule:nonzero;"/><path d="M20.407,70.009c0,0 66.822,-57.61 135.048,5.39c0,0 -62.007,-65.983 -135.048,-5.39Z" style="fill:#007db5;fill-rule:nonzero;"/><path d="M45.216,131.577c0,0 32.999,4.858 51.435,-26.939c0,0 -11.578,36.198 -51.435,26.939Z" style="fill:#00b5df;fill-rule:nonzero;"/><path d="M118.418,107.92c0,0 64.813,46.074 66.276,-35.31c0,0 4.771,85.004 -66.276,35.31Z" style="fill:#2e3092;fill-rule:nonzero;"/><path d="M100.008,0c0,0 97.312,82.357 -2.566,153.019c0,0 91.851,-58.479 2.566,-153.019Z" style="fill:#139dc0;fill-rule:nonzero;"/><path d="M65.133,11.208c0,0 138.632,35.575 86.457,134.014c0,0 66.242,-87.231 -86.457,-134.014Z" style="fill:#ea841f;fill-rule:nonzero;"/><path d="M45.216,18.504c0,0 -14.678,66.1 65.325,86.663c0,0 -81.023,-9.68 -65.325,-86.663Z" style="fill:#59a5d5;fill-rule:nonzero;"/><path d="M142.507,135.924c0,0 -2.209,-39.356 -45.065,-48.651c0,0 42.837,-0.121 45.065,48.651Z" style="fill:#2e3092;fill-rule:nonzero;"/><path d="M23.203,118.865c0,0 -28.077,-9.246 -7.609,-67.953c0,0 -25.233,57.588 7.609,67.953Z" style="fill:#2e3092;fill-rule:nonzero;"/><path d="M55.96,135.924c0,0 -49.243,-44.071 20.739,-69.774c0,0 -75.89,18.078 -20.739,69.774Z" style="fill:#f99d2a;fill-rule:nonzero;"/><path d="M138.884,145.222c0,0 -12.682,-29.334 -49.938,-41.662c0,0 38.731,9.011 49.938,41.662Z" style="fill:#005d99;fill-rule:nonzero;"/><path d="M40.637,107.92c0,0 16.588,17.197 43.501,5.612c0,0 -21.784,15.631 -43.501,-5.612Z" style="fill:#00568a;fill-rule:nonzero;"/><path d="M70.885,22.707c0,0 -6.747,40.802 24.548,65.498c0,0 -35.533,-19.401 -24.548,-65.498Z" style="fill:#b6006a;fill-rule:nonzero;"/><path d="M93.53,4.873c0,0 41.983,30.16 20.032,77.214c0,0 25.739,-45.538 -20.032,-77.214Z" style="fill:#2e3092;fill-rule:nonzero;"/><path d="M142.507,118.865c0,0 17.111,-16.859 7.354,-39.564c0,0 15.311,22.63 -7.354,39.564Z" style="fill:#006ca4;fill-rule:nonzero;"/></g><g transform="matrix(9.04208,0,0,9.04208,-2381.93,-2832.9)"><path d="M289.276,318.364l3.346,5.063l0,-5.109c0,-0.332 0.071,-0.581 0.214,-0.747c0.142,-0.166 0.335,-0.249 0.577,-0.249c0.25,0 0.447,0.083 0.592,0.249c0.144,0.166 0.216,0.415 0.216,0.747l0,6.755c0,0.754 -0.312,1.131 -0.937,1.131c-0.156,0 -0.297,-0.022 -0.422,-0.067c-0.125,-0.045 -0.242,-0.116 -0.352,-0.214c-0.109,-0.098 -0.211,-0.212 -0.304,-0.343c-0.094,-0.131 -0.188,-0.264 -0.282,-0.401l-3.263,-5.004l0,5.033c0,0.328 -0.076,0.576 -0.229,0.744c-0.152,0.168 -0.347,0.252 -0.586,0.252c-0.246,0 -0.443,-0.085 -0.591,-0.255c-0.149,-0.169 -0.223,-0.417 -0.223,-0.741l0,-6.627c0,-0.281 0.031,-0.502 0.094,-0.662c0.074,-0.176 0.197,-0.319 0.369,-0.43c0.172,-0.112 0.357,-0.167 0.556,-0.167c0.157,0 0.29,0.025 0.402,0.076c0.111,0.05 0.209,0.119 0.293,0.205c0.084,0.086 0.17,0.197 0.258,0.334c0.087,0.136 0.178,0.279 0.272,0.427Z" style="fill:#008bb2;fill-rule:nonzero;"/><path d="M300.479,323.345l-3.129,0c0.004,0.363 0.077,0.684 0.22,0.961c0.143,0.277 0.332,0.486 0.568,0.627c0.237,0.14 0.497,0.211 0.783,0.211c0.191,0 0.366,-0.023 0.524,-0.068c0.158,-0.045 0.312,-0.115 0.46,-0.211c0.148,-0.095 0.285,-0.198 0.41,-0.307c0.125,-0.11 0.287,-0.258 0.486,-0.445c0.082,-0.071 0.2,-0.106 0.352,-0.106c0.164,0 0.297,0.045 0.398,0.135c0.102,0.09 0.153,0.217 0.153,0.381c0,0.144 -0.057,0.313 -0.17,0.507c-0.113,0.193 -0.284,0.378 -0.513,0.556c-0.228,0.178 -0.515,0.325 -0.861,0.443c-0.346,0.117 -0.743,0.175 -1.193,0.175c-1.027,0 -1.826,-0.293 -2.396,-0.879c-0.57,-0.586 -0.856,-1.38 -0.856,-2.384c0,-0.473 0.071,-0.911 0.211,-1.316c0.141,-0.404 0.346,-0.751 0.616,-1.04c0.269,-0.289 0.601,-0.511 0.996,-0.665c0.394,-0.154 0.832,-0.231 1.312,-0.231c0.625,0 1.161,0.132 1.609,0.395c0.447,0.264 0.782,0.605 1.005,1.023c0.222,0.418 0.334,0.843 0.334,1.277c0,0.402 -0.116,0.663 -0.346,0.782c-0.231,0.119 -0.555,0.179 -0.973,0.179Zm-3.129,-0.908l2.901,0c-0.039,-0.547 -0.187,-0.956 -0.443,-1.228c-0.256,-0.271 -0.593,-0.407 -1.01,-0.407c-0.399,0 -0.726,0.138 -0.982,0.413c-0.256,0.275 -0.411,0.683 -0.466,1.222Z" style="fill:#008bb2;fill-rule:nonzero;"/><path d="M307.299,325.302l0,-0.205c-0.191,0.242 -0.392,0.445 -0.603,0.609c-0.211,0.164 -0.441,0.286 -0.691,0.367c-0.25,0.08 -0.536,0.12 -0.856,0.12c-0.387,0 -0.733,-0.08 -1.04,-0.241c-0.307,-0.16 -0.544,-0.38 -0.712,-0.662c-0.199,-0.34 -0.299,-0.828 -0.299,-1.465l0,-3.169c0,-0.321 0.073,-0.56 0.217,-0.718c0.145,-0.158 0.336,-0.238 0.574,-0.238c0.243,0 0.438,0.081 0.586,0.241c0.149,0.16 0.223,0.398 0.223,0.715l0,2.56c0,0.371 0.031,0.683 0.094,0.935c0.062,0.252 0.174,0.449 0.337,0.591c0.162,0.143 0.381,0.214 0.659,0.214c0.269,0 0.523,-0.08 0.761,-0.24c0.239,-0.16 0.413,-0.369 0.522,-0.627c0.09,-0.226 0.135,-0.723 0.135,-1.488l0,-1.945c0,-0.317 0.074,-0.555 0.222,-0.715c0.149,-0.16 0.342,-0.241 0.58,-0.241c0.239,0 0.43,0.08 0.575,0.238c0.144,0.158 0.216,0.397 0.216,0.718l0,4.634c0,0.305 -0.069,0.533 -0.208,0.686c-0.138,0.152 -0.317,0.228 -0.536,0.228c-0.218,0 -0.399,-0.079 -0.542,-0.237c-0.142,-0.158 -0.214,-0.38 -0.214,-0.665Z" style="fill:#008bb2;fill-rule:nonzero;"/><path d="M317.823,323.345c0,0.273 -0.067,0.569 -0.202,0.888c-0.135,0.318 -0.347,0.631 -0.636,0.937c-0.289,0.307 -0.658,0.556 -1.107,0.747c-0.45,0.192 -0.973,0.287 -1.571,0.287c-0.453,0 -0.865,-0.043 -1.236,-0.129c-0.371,-0.086 -0.708,-0.219 -1.011,-0.401c-0.303,-0.182 -0.581,-0.421 -0.835,-0.718c-0.226,-0.269 -0.42,-0.571 -0.58,-0.905c-0.16,-0.334 -0.28,-0.69 -0.36,-1.069c-0.08,-0.379 -0.12,-0.782 -0.12,-1.207c0,-0.692 0.1,-1.311 0.301,-1.858c0.202,-0.547 0.49,-1.014 0.865,-1.403c0.375,-0.389 0.814,-0.685 1.318,-0.888c0.504,-0.203 1.041,-0.304 1.611,-0.304c0.696,0 1.315,0.138 1.858,0.416c0.543,0.277 0.959,0.62 1.248,1.028c0.289,0.408 0.433,0.794 0.433,1.157c0,0.199 -0.07,0.375 -0.21,0.527c-0.141,0.153 -0.311,0.229 -0.51,0.229c-0.223,0 -0.39,-0.053 -0.501,-0.158c-0.112,-0.106 -0.236,-0.287 -0.372,-0.545c-0.227,-0.426 -0.493,-0.744 -0.8,-0.955c-0.307,-0.211 -0.685,-0.317 -1.134,-0.317c-0.715,0 -1.284,0.272 -1.708,0.815c-0.424,0.543 -0.636,1.314 -0.636,2.314c0,0.668 0.094,1.224 0.282,1.667c0.187,0.444 0.453,0.775 0.797,0.993c0.343,0.219 0.746,0.329 1.207,0.329c0.5,0 0.922,-0.124 1.268,-0.373c0.346,-0.248 0.607,-0.612 0.782,-1.092c0.075,-0.227 0.166,-0.411 0.276,-0.554c0.109,-0.143 0.285,-0.214 0.527,-0.214c0.207,0 0.385,0.072 0.533,0.217c0.149,0.144 0.223,0.324 0.223,0.539Z" style="fill:#492c78;fill-rule:nonzero;"/><path d="M323.43,325.302l0,-0.205c-0.191,0.242 -0.392,0.445 -0.603,0.609c-0.211,0.164 -0.442,0.286 -0.692,0.367c-0.25,0.08 -0.535,0.12 -0.855,0.12c-0.387,0 -0.733,-0.08 -1.04,-0.241c-0.307,-0.16 -0.544,-0.38 -0.712,-0.662c-0.199,-0.34 -0.299,-0.828 -0.299,-1.465l0,-3.169c0,-0.321 0.072,-0.56 0.217,-0.718c0.144,-0.158 0.336,-0.238 0.574,-0.238c0.242,0 0.438,0.081 0.586,0.241c0.149,0.16 0.223,0.398 0.223,0.715l0,2.56c0,0.371 0.031,0.683 0.094,0.935c0.062,0.252 0.174,0.449 0.336,0.591c0.163,0.143 0.382,0.214 0.66,0.214c0.269,0 0.523,-0.08 0.761,-0.24c0.239,-0.16 0.412,-0.369 0.522,-0.627c0.09,-0.226 0.135,-0.723 0.135,-1.488l0,-1.945c0,-0.317 0.074,-0.555 0.222,-0.715c0.149,-0.16 0.342,-0.241 0.58,-0.241c0.239,0 0.43,0.08 0.575,0.238c0.144,0.158 0.216,0.397 0.216,0.718l0,4.634c0,0.305 -0.069,0.533 -0.208,0.686c-0.138,0.152 -0.317,0.228 -0.536,0.228c-0.219,0 -0.399,-0.079 -0.542,-0.237c-0.142,-0.158 -0.214,-0.38 -0.214,-0.665Z" style="fill:#492c78;fill-rule:nonzero;"/><path d="M328.001,318.236l0,2.443c0.3,-0.313 0.607,-0.552 0.92,-0.718c0.312,-0.166 0.699,-0.249 1.16,-0.249c0.531,0 0.997,0.126 1.397,0.378c0.401,0.252 0.711,0.617 0.932,1.096c0.221,0.478 0.331,1.046 0.331,1.702c0,0.484 -0.062,0.929 -0.185,1.333c-0.123,0.404 -0.301,0.755 -0.536,1.052c-0.234,0.297 -0.518,0.526 -0.852,0.688c-0.334,0.162 -0.703,0.243 -1.105,0.243c-0.246,0 -0.477,-0.029 -0.694,-0.088c-0.217,-0.058 -0.402,-0.135 -0.554,-0.231c-0.152,-0.096 -0.282,-0.194 -0.39,-0.296c-0.107,-0.101 -0.249,-0.254 -0.424,-0.457l0,0.158c0,0.301 -0.073,0.529 -0.217,0.683c-0.145,0.154 -0.328,0.231 -0.551,0.231c-0.226,0 -0.407,-0.077 -0.542,-0.231c-0.135,-0.154 -0.202,-0.382 -0.202,-0.683l0,-6.984c0,-0.324 0.065,-0.569 0.196,-0.735c0.131,-0.166 0.314,-0.249 0.548,-0.249c0.246,0 0.436,0.079 0.568,0.237c0.133,0.158 0.2,0.384 0.2,0.677Zm0.076,4.752c0,0.636 0.145,1.126 0.436,1.467c0.291,0.342 0.673,0.513 1.146,0.513c0.402,0 0.749,-0.175 1.04,-0.524c0.291,-0.35 0.436,-0.851 0.436,-1.503c0,-0.422 -0.06,-0.785 -0.181,-1.09c-0.121,-0.305 -0.293,-0.54 -0.516,-0.706c-0.223,-0.166 -0.482,-0.249 -0.779,-0.249c-0.305,0 -0.576,0.083 -0.815,0.249c-0.238,0.166 -0.425,0.406 -0.562,0.72c-0.137,0.315 -0.205,0.689 -0.205,1.123Z" style="fill:#492c78;fill-rule:nonzero;"/><path d="M338.489,323.345l-3.129,0c0.004,0.363 0.077,0.684 0.22,0.961c0.142,0.277 0.332,0.486 0.568,0.627c0.236,0.14 0.497,0.211 0.782,0.211c0.192,0 0.367,-0.023 0.525,-0.068c0.158,-0.045 0.311,-0.115 0.46,-0.211c0.148,-0.095 0.285,-0.198 0.41,-0.307c0.125,-0.11 0.287,-0.258 0.486,-0.445c0.082,-0.071 0.199,-0.106 0.352,-0.106c0.164,0 0.297,0.045 0.398,0.135c0.102,0.09 0.153,0.217 0.153,0.381c0,0.144 -0.057,0.313 -0.17,0.507c-0.114,0.193 -0.285,0.378 -0.513,0.556c-0.229,0.178 -0.516,0.325 -0.861,0.443c-0.346,0.117 -0.744,0.175 -1.193,0.175c-1.027,0 -1.826,-0.293 -2.396,-0.879c-0.571,-0.586 -0.856,-1.38 -0.856,-2.384c0,-0.473 0.071,-0.911 0.211,-1.316c0.141,-0.404 0.346,-0.751 0.615,-1.04c0.27,-0.289 0.602,-0.511 0.997,-0.665c0.394,-0.154 0.832,-0.231 1.312,-0.231c0.625,0 1.161,0.132 1.608,0.395c0.448,0.264 0.783,0.605 1.005,1.023c0.223,0.418 0.334,0.843 0.334,1.277c0,0.402 -0.115,0.663 -0.345,0.782c-0.231,0.119 -0.555,0.179 -0.973,0.179Zm-3.129,-0.908l2.9,0c-0.039,-0.547 -0.186,-0.956 -0.442,-1.228c-0.256,-0.271 -0.593,-0.407 -1.011,-0.407c-0.398,0 -0.725,0.138 -0.981,0.413c-0.256,0.275 -0.411,0.683 -0.466,1.222Z" style="fill:#492c78;fill-rule:nonzero;"/></g></g></svg>